<svg width="24.000000" height="24.000000" viewBox="0 0 24 24" fill="none" xmlns="http://www.w3.org/2000/svg" xmlns:xlink="http://www.w3.org/1999/xlink">
	<desc>
			Created with Pixso.
	</desc>
	<defs>
		<clipPath id="clip0_440">
			<rect id="fi-rr-arrow-small-right 1" rx="-0.500000" width="23.000000" height="23.000000" transform="translate(0.500000 0.500000)" fill="white" fill-opacity="0"/>
		</clipPath>
	</defs>
	<rect id="fi-rr-arrow-small-right 1" rx="-0.500000" width="23.000000" height="23.000000" transform="translate(0.500000 0.500000)" fill="#FFFFFF" fill-opacity="0"/>
	<g clip-path="url(#clip0_440)">
		<path id="Vector" d="M13.12 6.29C12.93 6.48 12.82 6.73 12.82 7C12.82 7.26 12.93 7.51 13.12 7.7L16.41 11L6 11C5.73 11 5.48 11.11 5.29 11.29C5.1 11.48 5 11.74 5 12C5 12.27 5.1 12.52 5.29 12.71C5.48 12.9 5.73 13 6 13L16.41 13L13.12 16.29C13.02 16.38 12.94 16.49 12.89 16.61C12.84 16.73 12.81 16.87 12.81 17C12.81 17.13 12.83 17.26 12.89 17.39C12.94 17.51 13.01 17.62 13.1 17.71C13.2 17.81 13.31 17.88 13.43 17.93C13.55 17.98 13.69 18.01 13.82 18.01C13.95 18.01 14.08 17.98 14.21 17.93C14.33 17.87 14.44 17.8 14.53 17.7L18.12 14.12C18.39 13.84 18.62 13.51 18.77 13.14C18.92 12.78 18.99 12.39 18.99 12C18.99 11.6 18.92 11.21 18.77 10.85C18.62 10.48 18.39 10.15 18.12 9.87L14.53 6.29C14.34 6.1 14.09 6 13.82 6C13.56 6 13.3 6.1 13.12 6.29Z" fill="#FFFFFF" fill-opacity="1.000000" fill-rule="nonzero"/>
	</g>
</svg>
