<svg width="44.000000" height="44.000000" viewBox="0 0 44 44" fill="none" xmlns="http://www.w3.org/2000/svg" xmlns:xlink="http://www.w3.org/1999/xlink">
	<desc>
			Created with Pixso.
	</desc>
	<defs>
		<clipPath id="clip0_161">
			<rect id="burger 1" rx="-0.500000" width="43.000000" height="43.000000" transform="translate(0.500000 0.500000)" fill="white" fill-opacity="0"/>
		</clipPath>
	</defs>
	<rect id="burger 1" rx="-0.500000" width="43.000000" height="43.000000" transform="translate(0.500000 0.500000)" fill="#FFFFFF" fill-opacity="0"/>
	<g clip-path="url(#clip0_161)">
		<path id="Vector" d="M44 20.33C44 18.64 42.91 17.2 41.39 16.68C41.16 11.44 39.2 7.41 35.57 4.71C32.25 2.25 27.68 1 22 1C16.31 1 11.74 2.25 8.42 4.71C4.79 7.41 2.83 11.44 2.6 16.68C1.08 17.2 0 18.64 0 20.33C0 21.32 0.37 22.22 0.98 22.91C0.37 23.59 0 24.5 0 25.49C0 27.19 1.1 28.63 2.62 29.15C3.18 35.04 8.18 39.67 14.26 39.67L29.73 39.67C35.81 39.67 40.81 35.04 41.37 29.15C42.89 28.63 44 27.19 44 25.49C44 24.5 43.62 23.59 43.01 22.91C43.62 22.22 44 21.32 44 20.33ZM22 3.57C29.39 3.57 38.15 5.85 38.8 16.46L5.19 16.46C5.84 5.85 14.6 3.57 22 3.57ZM3.86 19.04L40.13 19.04C40.84 19.04 41.42 19.62 41.42 20.33C41.42 21.04 40.84 21.62 40.13 21.62L3.86 21.62C3.15 21.62 2.57 21.04 2.57 20.33C2.57 19.62 3.15 19.04 3.86 19.04ZM29.73 37.09L14.26 37.09C9.68 37.09 5.88 33.72 5.24 29.35L6.44 29.35C7.3 29.35 7.57 29.65 8.12 30.23C8.78 30.95 9.7 31.93 11.68 31.93C13.68 31.93 14.57 30.94 15.22 30.21C15.73 29.64 15.99 29.35 16.84 29.35C17.69 29.35 17.94 29.64 18.46 30.21C19.11 30.94 20 31.93 22 31.93C23.99 31.93 24.88 30.94 25.53 30.21C26.05 29.64 26.3 29.35 27.15 29.35C28 29.35 28.26 29.64 28.77 30.21C29.42 30.94 30.31 31.93 32.31 31.93C34.31 31.93 35.2 30.94 35.85 30.21C36.36 29.64 36.62 29.35 37.46 29.35L38.75 29.35C38.11 33.72 34.31 37.09 29.73 37.09ZM40.13 26.78L37.46 26.78C35.46 26.78 34.57 27.77 33.93 28.49C33.41 29.07 33.16 29.35 32.31 29.35C31.46 29.35 31.2 29.07 30.69 28.49C30.04 27.77 29.15 26.78 27.15 26.78C25.15 26.78 24.26 27.77 23.61 28.49C23.1 29.07 22.84 29.35 22 29.35C21.15 29.35 20.89 29.07 20.38 28.49C19.73 27.77 18.84 26.78 16.84 26.78C14.84 26.78 13.95 27.77 13.3 28.49C12.79 29.07 12.53 29.35 11.68 29.35C10.82 29.35 10.55 29.06 10.01 28.48C9.34 27.76 8.43 26.78 6.44 26.78L3.86 26.78C3.15 26.78 2.57 26.2 2.57 25.49C2.57 24.78 3.15 24.2 3.86 24.2L40.13 24.2C40.84 24.2 41.42 24.78 41.42 25.49C41.42 26.2 40.84 26.78 40.13 26.78Z" fill="#FFFFFF" fill-opacity="1.000000" fill-rule="nonzero"/>
		<path id="Vector" d="M15.55 12.6C15.55 13.31 14.97 13.89 14.26 13.89C13.55 13.89 12.97 13.31 12.97 12.6C12.97 11.88 13.55 11.31 14.26 11.31C14.97 11.31 15.55 11.88 15.55 12.6Z" fill="#FFFFFF" fill-opacity="1.000000" fill-rule="evenodd"/>
		<path id="Vector" d="M31.02 12.6C31.02 13.31 30.44 13.89 29.73 13.89C29.02 13.89 28.44 13.31 28.44 12.6C28.44 11.88 29.02 11.31 29.73 11.31C30.44 11.31 31.02 11.88 31.02 12.6Z" fill="#FFFFFF" fill-opacity="1.000000" fill-rule="evenodd"/>
		<path id="Vector" d="M25.86 10.02C25.86 10.73 25.29 11.31 24.57 11.31C23.86 11.31 23.28 10.73 23.28 10.02C23.28 9.31 23.86 8.73 24.57 8.73C25.29 8.73 25.86 9.31 25.86 10.02Z" fill="#FFFFFF" fill-opacity="1.000000" fill-rule="evenodd"/>
		<path id="Vector" d="M20.71 7.44C20.71 8.15 20.13 8.73 19.42 8.73C18.7 8.73 18.13 8.15 18.13 7.44C18.13 6.73 18.7 6.15 19.42 6.15C20.13 6.15 20.71 6.73 20.71 7.44Z" fill="#FFFFFF" fill-opacity="1.000000" fill-rule="evenodd"/>
	</g>
</svg>
