<svg width="62.225403" height="62.225342" viewBox="0 0 62.2254 62.2253" fill="none" xmlns="http://www.w3.org/2000/svg" xmlns:xlink="http://www.w3.org/1999/xlink">
	<desc>
			Created with Pixso.
	</desc>
	<defs>
		<clipPath id="clip0_172">
			<rect id="pizza 1" rx="-0.500000" width="43.000000" height="43.000000" transform="matrix(0.707107 -0.707107 -0.707107 -0.707107 31.6127 62.7253)" fill="white" fill-opacity="0"/>
		</clipPath>
	</defs>
	<rect id="pizza 1" rx="-0.500000" width="43.000000" height="43.000000" transform="matrix(0.707107 -0.707107 -0.707107 -0.707107 31.6127 62.7253)" fill="#FFFFFF" fill-opacity="0"/>
	<g clip-path="url(#clip0_172)">
		<path id="Vector" d="M61.87 31.11C61.86 31.44 61.67 31.74 61.37 31.88L27.13 48.12C26.79 49.54 25.81 50.77 24.37 51.37C21.97 52.36 19.21 51.22 18.22 48.83C15.88 43.18 14.7 37.22 14.7 31.11C14.7 24.99 15.88 19.03 18.22 13.39C18.47 12.8 18.81 12.29 19.24 11.87C20.54 10.56 22.56 10.09 24.37 10.84C25.58 11.35 26.47 12.31 26.93 13.44L61.38 30.34C61.68 30.48 61.87 30.78 61.87 31.11ZM31.03 44.37L34.66 42.65C34.64 42 34.33 41.39 33.8 40.99C33.34 40.63 32.76 40.48 32.18 40.55C31.6 40.63 31.09 40.93 30.73 41.39C30.37 41.85 30.22 42.43 30.3 43.01C30.37 43.54 30.63 44.02 31.03 44.37ZM23.71 12.43C22.19 11.8 20.44 12.52 19.81 14.04C15.25 25.05 15.25 37.17 19.81 48.17C20.12 48.91 20.69 49.48 21.42 49.78C22.16 50.09 22.97 50.09 23.71 49.78C24.44 49.48 25.02 48.91 25.32 48.17C25.63 47.43 25.63 46.62 25.32 45.89C23.37 41.18 22.38 36.21 22.38 31.11C22.38 26.01 23.37 21.04 25.32 16.33C25.95 14.81 25.23 13.06 23.71 12.43ZM47.53 25.46C47.48 25.51 47.43 25.57 47.38 25.64C47.02 26.1 46.87 26.67 46.95 27.25C47.02 27.83 47.32 28.35 47.78 28.71C48.74 29.44 50.12 29.26 50.86 28.3C51.08 28.01 51.23 27.66 51.28 27.3L47.53 25.46ZM52.87 28.07C52.73 28.53 52.51 28.96 52.22 29.35C50.91 31.06 48.45 31.38 46.74 30.07C45.91 29.43 45.38 28.51 45.24 27.48C45.11 26.48 45.36 25.49 45.95 24.68L41.21 22.36L40.89 24.81C40.82 25.28 40.39 25.61 39.92 25.55C39.45 25.49 39.12 25.06 39.18 24.59L39.58 21.56L27.25 15.52C27.22 16.01 27.11 16.5 26.91 16.98C23.14 26.09 23.14 36.12 26.91 45.23C27.04 45.55 27.13 45.87 27.19 46.19L29.4 45.15C28.97 44.6 28.69 43.94 28.59 43.23C28.46 42.2 28.73 41.17 29.37 40.34C29.47 40.21 29.59 40.08 29.71 39.95C30.31 39.35 31.1 38.96 31.96 38.85C32.99 38.71 34.02 38.99 34.85 39.62C35.59 40.19 36.09 41 36.28 41.88L46.53 37.02L46.13 36.04C45.99 35.71 46.07 35.34 46.31 35.11C46.39 35.03 46.48 34.97 46.59 34.92C47.03 34.74 47.53 34.95 47.71 35.39L48.09 36.28L59.03 31.09L52.87 28.07Z" fill="#363853" fill-opacity="1.000000" fill-rule="nonzero"/>
		<path id="Vector" d="M21.37 39.36C21.37 39.36 21.37 39.37 21.37 39.38C21.47 39.84 21.16 40.29 20.7 40.39C20.23 40.48 19.78 40.18 19.69 39.72C19.63 39.42 19.72 39.13 19.92 38.93C20.03 38.82 20.18 38.73 20.35 38.7C20.81 38.6 21.27 38.89 21.37 39.36Z" fill="#363853" fill-opacity="1.000000" fill-rule="nonzero"/>
		<path id="Vector" d="M21.95 41.79C22.4 43.42 22.95 45.04 23.6 46.6C23.78 47.04 23.57 47.54 23.14 47.72C22.7 47.91 22.19 47.7 22.01 47.26C21.34 45.63 20.76 43.94 20.3 42.24C20.21 41.93 20.31 41.62 20.52 41.41C20.62 41.31 20.75 41.23 20.9 41.19C21.36 41.06 21.83 41.33 21.95 41.79Z" fill="#363853" fill-opacity="1.000000" fill-rule="nonzero"/>
		<path id="Vector" d="M42.35 35.43C42.24 35.56 42.13 35.69 42.01 35.81C40.63 37.2 38.42 37.34 36.87 36.15C35.16 34.84 34.83 32.38 36.14 30.67C36.25 30.53 36.36 30.4 36.48 30.28C37.86 28.9 40.07 28.76 41.62 29.95C43.33 31.26 43.66 33.72 42.35 35.43ZM40.58 31.31C39.71 30.64 38.47 30.72 37.7 31.5C37.63 31.56 37.57 31.64 37.51 31.71C36.77 32.67 36.95 34.05 37.91 34.79C38.78 35.45 40.02 35.37 40.79 34.6C40.86 34.53 40.92 34.46 40.98 34.38C41.72 33.42 41.54 32.04 40.58 31.31Z" fill="#363853" fill-opacity="1.000000" fill-rule="nonzero"/>
		<path id="Vector" d="M34.63 28.03C34.52 28.16 34.41 28.29 34.29 28.41C32.91 29.79 30.7 29.94 29.15 28.75C28.32 28.11 27.79 27.19 27.65 26.16C27.52 25.12 27.79 24.1 28.43 23.27C28.53 23.13 28.65 23 28.77 22.88C30.15 21.5 32.36 21.36 33.91 22.55C35.62 23.86 35.94 26.32 34.63 28.03ZM32.86 23.91C31.99 23.24 30.75 23.32 29.98 24.1C29.91 24.16 29.85 24.24 29.79 24.31C29.43 24.78 29.28 25.35 29.36 25.93C29.43 26.51 29.73 27.03 30.19 27.38C31.06 28.05 32.3 27.97 33.07 27.2C33.14 27.13 33.21 27.06 33.27 26.98C34 26.02 33.82 24.64 32.86 23.91Z" fill="#363853" fill-opacity="1.000000" fill-rule="nonzero"/>
		<path id="Vector" d="M33.14 34.55L31.52 36.67C31.23 37.04 30.69 37.11 30.31 36.82C29.94 36.54 29.86 36 30.15 35.62L31.78 33.51C31.8 33.48 31.82 33.45 31.85 33.42C32.15 33.12 32.63 33.08 32.98 33.35C33.36 33.64 33.43 34.18 33.14 34.55Z" fill="#363853" fill-opacity="1.000000" fill-rule="nonzero"/>
		<path id="Vector" d="M27.71 31.01L28.8 32.43C29.08 32.81 29.01 33.35 28.64 33.64C28.26 33.93 27.72 33.86 27.43 33.48L26.34 32.06C26.08 31.71 26.12 31.23 26.42 30.93C26.44 30.9 26.47 30.88 26.5 30.86C26.88 30.57 27.42 30.64 27.71 31.01Z" fill="#363853" fill-opacity="1.000000" fill-rule="nonzero"/>
	</g>
</svg>
