<svg width="44.000000" height="44.000000" viewBox="0 0 44 44" fill="none" xmlns="http://www.w3.org/2000/svg" xmlns:xlink="http://www.w3.org/1999/xlink">
	<desc>
			Created with Pixso.
	</desc>
	<defs>
		<clipPath id="clip0_200">
			<rect id="christmas-dinner 2" rx="-0.500000" width="43.000000" height="43.000000" transform="translate(0.500000 0.500000)" fill="white" fill-opacity="0"/>
		</clipPath>
		<clipPath id="clip0_199">
			<rect id="sandwich 1" rx="-0.500000" width="43.000000" height="43.000000" transform="translate(0.500000 0.500000)" fill="white" fill-opacity="0"/>
		</clipPath>
	</defs>
	<rect id="sandwich 1" rx="-0.500000" width="43.000000" height="43.000000" transform="translate(0.500000 0.500000)" fill="#FFFFFF" fill-opacity="0"/>
	<g clip-path="url(#clip0_199)">
		<rect id="christmas-dinner 2" rx="-0.500000" width="43.000000" height="43.000000" transform="translate(0.500000 0.500000)" fill="#FFFFFF" fill-opacity="0"/>
		<g clip-path="url(#clip0_200)">
			<path id="Vector" d="M15.13 13.56L17.25 13.56C17.8 13.56 18.25 14.01 18.25 14.56L18.25 16.03C18.25 16.38 18.54 16.67 18.9 16.67C19.25 16.67 19.54 16.38 19.54 16.03L19.54 14.56C19.54 13.3 18.51 12.27 17.25 12.27L15.13 12.27C14.58 12.27 14.14 11.83 14.14 11.29C14.14 10.75 14.58 10.31 15.13 10.31L19.84 10.31C21.09 10.31 22.11 9.29 22.11 8.03C22.11 6.78 21.09 5.76 19.84 5.76L16.07 5.76C15.71 5.76 15.42 6.05 15.42 6.41C15.42 6.76 15.71 7.05 16.07 7.05L19.84 7.05C20.38 7.05 20.82 7.49 20.82 8.03C20.82 8.58 20.38 9.02 19.84 9.02L15.13 9.02C13.87 9.02 12.85 10.04 12.85 11.29C12.85 12.54 13.87 13.56 15.13 13.56Z" fill="#363853" fill-opacity="1.000000" fill-rule="nonzero"/>
			<path id="Vector" d="M7.38 17.89L9.49 17.89C10.04 17.89 10.48 18.33 10.48 18.87L10.48 20.33C10.48 20.68 10.77 20.97 11.12 20.97C11.48 20.97 11.77 20.68 11.77 20.33L11.77 18.87C11.77 17.62 10.75 16.6 9.49 16.6L7.38 16.6C6.85 16.6 6.41 16.16 6.41 15.63C6.41 15.09 6.85 14.66 7.38 14.66L9.85 14.66C10.2 14.66 10.49 14.37 10.49 14.01C10.49 13.66 10.2 13.37 9.85 13.37L7.38 13.37C6.14 13.37 5.12 14.38 5.12 15.63C5.12 16.87 6.14 17.89 7.38 17.89Z" fill="#363853" fill-opacity="1.000000" fill-rule="nonzero"/>
			<path id="Vector" d="M26.29 26.16C26.29 26.52 26 26.81 25.65 26.81C25.29 26.81 25 26.52 25 26.16C25 25.81 25.29 25.52 25.65 25.52C26 25.52 26.29 25.81 26.29 26.16Z" fill="#363853" fill-opacity="1.000000" fill-rule="evenodd"/>
			<path id="Vector" d="M29.47 27.62C29.47 27.98 29.18 28.27 28.83 28.27C28.47 28.27 28.18 27.98 28.18 27.62C28.18 27.27 28.47 26.98 28.83 26.98C29.18 26.98 29.47 27.27 29.47 27.62Z" fill="#363853" fill-opacity="1.000000" fill-rule="evenodd"/>
			<path id="Vector" d="M31.36 29.86C31.36 30.21 31.07 30.5 30.72 30.5C30.36 30.5 30.07 30.21 30.07 29.86C30.07 29.5 30.36 29.21 30.72 29.21C31.07 29.21 31.36 29.5 31.36 29.86Z" fill="#363853" fill-opacity="1.000000" fill-rule="evenodd"/>
			<path id="Vector" d="M28.7 24.62C28.7 24.97 28.41 25.26 28.05 25.26C27.7 25.26 27.41 24.97 27.41 24.62C27.41 24.26 27.7 23.97 28.05 23.97C28.41 23.97 28.7 24.26 28.7 24.62Z" fill="#363853" fill-opacity="1.000000" fill-rule="evenodd"/>
			<path id="Vector" d="M26.55 30.29C26.55 30.64 26.26 30.93 25.91 30.93C25.55 30.93 25.26 30.64 25.26 30.29C25.26 29.93 25.55 29.64 25.91 29.64C26.26 29.64 26.55 29.93 26.55 30.29Z" fill="#363853" fill-opacity="1.000000" fill-rule="evenodd"/>
			<path id="Vector" d="M42.91 22.81L41.08 22.81L41.98 20.94C43.13 20.71 44 19.7 44 18.48C44 17.24 43.08 16.21 41.89 16.01C40.58 13.64 38.01 11.87 34.89 11.16L34.89 11.11C34.89 10.75 34.6 10.46 34.25 10.46C33.95 10.46 33.7 10.66 33.63 10.93C33.24 10.88 32.84 10.85 32.43 10.83C32.33 10.61 32.11 10.46 31.85 10.46C31.59 10.46 31.37 10.61 31.27 10.83C30.86 10.85 30.46 10.88 30.07 10.93C29.99 10.66 29.75 10.46 29.45 10.46C29.1 10.46 28.81 10.75 28.81 11.11L28.81 11.16C25.69 11.87 23.12 13.64 21.81 16.01C20.62 16.21 19.7 17.24 19.7 18.48C19.7 18.56 19.71 18.63 19.71 18.7C16.74 18.98 14.06 20.22 12.06 22.08L8.01 22.08C7.73 22.08 7.49 22.21 7.32 22.4L5.43 22.4C5.12 21.62 4.35 21.07 3.47 21.07C2.31 21.07 1.36 22.01 1.36 23.17C1.36 23.27 1.37 23.37 1.39 23.46C0.58 23.76 0 24.53 0 25.44C0 25.85 0.11 26.23 0.32 26.57C0.11 26.9 0 27.29 0 27.69C0 28.85 0.94 29.8 2.1 29.8C2.98 29.8 3.75 29.24 4.06 28.46L5.76 28.46C5.84 28.75 6.05 28.98 6.35 29.08L8.37 29.77C8.35 29.98 8.35 30.19 8.35 30.4C8.35 30.6 8.35 30.79 8.36 30.99C8.05 31.07 7.75 31.2 7.49 31.37C7.06 31.08 6.54 30.91 5.98 30.91C4.48 30.91 3.26 32.13 3.26 33.63C3.26 33.66 3.27 33.68 3.27 33.7L2.51 33.7C2.09 33.7 1.71 33.94 1.53 34.33C1.35 34.71 1.4 35.15 1.67 35.48L3.6 37.83C3.81 38.08 4.12 38.23 4.45 38.23L31.71 38.23C32.06 38.23 32.35 37.94 32.35 37.58C32.35 37.23 32.06 36.94 31.71 36.94L4.54 36.94L2.94 34.99L42.48 34.99L40.88 36.94L34.71 36.94C34.36 36.94 34.07 37.23 34.07 37.58C34.07 37.94 34.36 38.23 34.71 38.23L40.97 38.23C41.3 38.23 41.6 38.08 41.81 37.83L43.75 35.48C44.02 35.15 44.07 34.71 43.89 34.33C43.71 33.94 43.33 33.7 42.9 33.7L42.27 33.7C42.9 32.61 43.14 31.31 42.91 30.03C42.86 29.77 42.65 29.56 42.39 29.51C40.64 29.19 38.85 29.75 37.6 31.01C37.52 31.08 37.45 31.16 37.38 31.24C37.01 31.04 36.59 30.93 36.14 30.92L36.14 29.69L36.83 29.69C37.92 29.69 38.81 28.8 38.81 27.71L38.81 26.85L42.91 26.85C43.51 26.85 44 26.36 44 25.76L44 23.89C44 23.29 43.51 22.81 42.91 22.81ZM6.29 33.7L4.56 33.7C4.55 33.68 4.55 33.66 4.55 33.63C4.55 32.84 5.19 32.2 5.98 32.2C6.21 32.2 6.42 32.26 6.61 32.35C6.4 32.73 6.28 33.17 6.28 33.63C6.28 33.66 6.28 33.68 6.29 33.7ZM38.51 31.92C39.35 31.07 40.52 30.64 41.7 30.72C41.77 31.81 41.41 32.88 40.69 33.7L39.63 33.7L40.51 32.82C40.76 32.57 40.76 32.16 40.51 31.91C40.26 31.66 39.85 31.66 39.6 31.91L38.68 32.82C38.6 32.56 38.48 32.32 38.34 32.11C38.39 32.04 38.45 31.98 38.51 31.92ZM25.5 13.94C26.47 13.28 27.6 12.79 28.81 12.49L28.81 13.15C28.81 13.5 29.1 13.79 29.45 13.79C29.81 13.79 30.1 13.5 30.1 13.15L30.1 12.23C30.46 12.18 30.83 12.14 31.2 12.12L31.2 13.15C31.2 13.5 31.49 13.79 31.85 13.79C32.21 13.79 32.49 13.5 32.49 13.15L32.49 12.12C32.87 12.14 33.24 12.18 33.6 12.23L33.6 13.15C33.6 13.5 33.89 13.79 34.25 13.79C34.6 13.79 34.89 13.5 34.89 13.15L34.89 12.49C36.1 12.79 37.23 13.28 38.2 13.94C39.15 14.57 39.93 15.34 40.49 16.19C40.27 16.29 40.07 16.42 39.89 16.57C39.44 16.2 38.87 15.98 38.28 15.98C37.68 15.98 37.12 16.2 36.67 16.57C36.23 16.2 35.66 15.98 35.06 15.98C34.47 15.98 33.9 16.2 33.46 16.57C33.01 16.2 32.44 15.98 31.85 15.98C31.26 15.98 30.69 16.2 30.24 16.57C29.8 16.2 29.23 15.98 28.64 15.98C28.04 15.98 27.47 16.2 27.03 16.57C26.58 16.2 26.02 15.98 25.42 15.98C24.83 15.98 24.26 16.2 23.81 16.57C23.63 16.42 23.43 16.29 23.21 16.19C23.77 15.34 24.55 14.57 25.5 13.94ZM22.21 17.27C22.64 17.27 23.04 17.5 23.26 17.88C23.37 18.08 23.58 18.2 23.81 18.2C24.04 18.2 24.26 18.08 24.37 17.88C24.59 17.5 24.99 17.27 25.42 17.27C25.85 17.27 26.25 17.5 26.47 17.88C26.59 18.08 26.8 18.2 27.03 18.2C27.26 18.2 27.47 18.08 27.59 17.88C27.8 17.5 28.2 17.27 28.64 17.27C29.07 17.27 29.47 17.5 29.68 17.88C29.8 18.08 30.01 18.2 30.24 18.2C30.47 18.2 30.68 18.08 30.8 17.88C31.02 17.5 31.42 17.27 31.85 17.27C32.28 17.27 32.68 17.5 32.9 17.88C33.01 18.08 33.23 18.2 33.46 18.2C33.69 18.2 33.9 18.08 34.01 17.88C34.23 17.5 34.63 17.27 35.06 17.27C35.49 17.27 35.9 17.5 36.11 17.88C36.23 18.08 36.44 18.2 36.67 18.2C36.9 18.2 37.11 18.08 37.23 17.88C37.45 17.5 37.85 17.27 38.28 17.27C38.71 17.27 39.11 17.5 39.33 17.88C39.44 18.08 39.66 18.2 39.89 18.2C40.11 18.2 40.33 18.08 40.44 17.88C40.66 17.5 41.06 17.27 41.49 17.27C42.16 17.27 42.71 17.81 42.71 18.48C42.71 19.15 42.16 19.7 41.49 19.7C41.06 19.7 40.66 19.46 40.44 19.09C40.33 18.89 40.11 18.77 39.89 18.77C39.66 18.77 39.44 18.89 39.33 19.09C39.11 19.46 38.71 19.7 38.28 19.7C37.85 19.7 37.45 19.46 37.23 19.09C37.11 18.89 36.9 18.77 36.67 18.77C36.44 18.77 36.23 18.89 36.11 19.09C35.9 19.46 35.49 19.7 35.06 19.7C34.63 19.7 34.23 19.46 34.01 19.09C33.9 18.89 33.69 18.77 33.46 18.77C33.23 18.77 33.01 18.89 32.9 19.09C32.68 19.46 32.28 19.7 31.85 19.7C31.42 19.7 31.02 19.46 30.8 19.09C30.68 18.89 30.47 18.77 30.24 18.77C30.01 18.77 29.8 18.89 29.68 19.09C29.47 19.46 29.07 19.7 28.64 19.7C28.2 19.7 27.8 19.46 27.59 19.09C27.47 18.89 27.26 18.77 27.03 18.77C26.8 18.77 26.59 18.89 26.47 19.09C26.34 19.31 26.15 19.48 25.93 19.58C24.42 18.98 22.75 18.64 21 18.64C21 18.59 20.99 18.54 20.99 18.48C20.99 17.81 21.54 17.27 22.21 17.27ZM8.39 23.37L10.86 23.37C10.6 23.69 10.37 24.02 10.15 24.36L8.39 24.36L8.39 23.37ZM5.73 27.17L3.55 27.17C3.22 27.17 2.94 27.43 2.91 27.76C2.87 28.18 2.52 28.51 2.1 28.51C1.65 28.51 1.28 28.14 1.28 27.69C1.28 27.45 1.39 27.22 1.58 27.06C1.73 26.94 1.81 26.76 1.81 26.57C1.81 26.38 1.73 26.19 1.58 26.07C1.39 25.92 1.28 25.69 1.28 25.44C1.28 24.99 1.65 24.63 2.1 24.63C2.52 24.63 2.87 24.96 2.91 25.37C2.94 25.71 3.22 25.96 3.55 25.96L5.73 25.96L5.73 27.17L5.73 27.17ZM5.95 24.68L4.06 24.68C3.82 24.08 3.31 23.61 2.7 23.43C2.67 23.35 2.65 23.26 2.65 23.17C2.65 22.72 3.02 22.36 3.47 22.36C3.89 22.36 4.24 22.68 4.28 23.1C4.31 23.44 4.59 23.69 4.92 23.69L7.1 23.69L7.1 24.36L6.64 24.36C6.36 24.36 6.12 24.48 5.95 24.68ZM10.43 33.7L7.57 33.7C7.57 33.68 7.57 33.66 7.57 33.63C7.57 32.84 8.21 32.2 9 32.2C9.79 32.2 10.43 32.84 10.43 33.63C10.43 33.66 10.43 33.68 10.43 33.7ZM30.31 33.7L28.06 33.7C28.06 33.68 28.06 33.66 28.06 33.63C28.06 32.84 28.7 32.2 29.49 32.2C29.88 32.2 30.24 32.36 30.5 32.62C30.37 32.94 30.3 33.28 30.3 33.63C30.3 33.66 30.31 33.68 30.31 33.7ZM29.49 30.91C27.99 30.91 26.77 32.13 26.77 33.63C26.77 33.66 26.77 33.68 26.77 33.7L11.72 33.7C11.72 33.68 11.72 33.66 11.72 33.63C11.72 32.36 10.84 31.29 9.66 31C9.64 30.8 9.64 30.6 9.64 30.4C9.64 30.33 9.64 30.27 9.64 30.2L16.23 32.44C16.68 32.59 17.13 32.66 17.58 32.66C18.43 32.66 19.26 32.4 19.98 31.88C21.09 31.09 21.72 29.86 21.72 28.51C21.72 28.02 21.63 27.55 21.47 27.1C21.35 26.76 20.98 26.59 20.64 26.71C20.31 26.83 20.14 27.2 20.26 27.53C20.37 27.85 20.43 28.17 20.43 28.51C20.43 29.44 19.99 30.29 19.23 30.83C18.47 31.38 17.53 31.52 16.65 31.22L7.02 27.95L7.02 25.65L17.57 25.65C17.89 25.65 18.21 25.7 18.51 25.81C18.85 25.93 19.22 25.75 19.33 25.41C19.45 25.08 19.28 24.71 18.94 24.59C18.5 24.44 18.04 24.36 17.57 24.36L11.72 24.36C13.78 21.68 17.16 19.93 20.98 19.93C27.23 19.93 32.32 24.63 32.32 30.4C32.32 30.6 32.31 30.81 32.3 31.01C31.91 31.12 31.55 31.31 31.26 31.57C30.78 31.16 30.16 30.91 29.49 30.91ZM34.45 33.7L31.6 33.7C31.59 33.68 31.59 33.66 31.59 33.63C31.59 32.84 32.23 32.2 33.02 32.2C33.81 32.2 34.45 32.84 34.45 33.63C34.45 33.66 34.45 33.68 34.45 33.7ZM34.85 31.21C34.75 31.27 34.65 31.33 34.56 31.39C34.27 31.19 33.94 31.05 33.59 30.98C33.6 30.78 33.61 30.59 33.61 30.4C33.61 30.16 33.6 29.92 33.58 29.69L34.85 29.69L34.85 31.21ZM37.52 33.63C37.52 33.66 37.52 33.68 37.52 33.7L35.74 33.7C35.74 33.68 35.74 33.66 35.74 33.63C35.74 33.18 35.63 32.75 35.43 32.37C35.62 32.26 35.85 32.2 36.09 32.2C36.88 32.2 37.52 32.84 37.52 33.63ZM37.52 27.71C37.52 28.09 37.21 28.4 36.83 28.4L33.42 28.4C33.33 27.87 33.19 27.35 33.02 26.85L37.52 26.85L37.52 27.71ZM42.71 25.56L32.49 25.56C32.24 25.05 31.96 24.56 31.64 24.1L34.37 24.1C34.73 24.1 35.01 23.81 35.01 23.45C35.01 23.09 34.73 22.81 34.37 22.81L30.61 22.81C30 22.13 29.3 21.52 28.54 20.98C28.57 20.99 28.6 20.99 28.64 20.99C29.23 20.99 29.8 20.77 30.24 20.4C30.69 20.77 31.26 20.99 31.85 20.99C32.44 20.99 33.01 20.77 33.46 20.4C33.9 20.77 34.47 20.99 35.06 20.99C35.66 20.99 36.23 20.77 36.67 20.4C37.12 20.77 37.68 20.99 38.28 20.99C38.87 20.99 39.44 20.77 39.89 20.4C40.1 20.58 40.34 20.72 40.61 20.82L39.65 22.81L37.38 22.81C37.02 22.81 36.73 23.09 36.73 23.45C36.73 23.81 37.02 24.1 37.38 24.1L42.71 24.1L42.71 25.56Z" fill="#363853" fill-opacity="1.000000" fill-rule="nonzero"/>
		</g>
	</g>
</svg>
