<svg width="44.000000" height="43.489380" viewBox="0 0 44 43.4894" fill="none" xmlns="http://www.w3.org/2000/svg" xmlns:xlink="http://www.w3.org/1999/xlink">
	<desc>
			Created with Pixso.
	</desc>
	<defs>
		<clipPath id="clip0_228">
			<rect id="dish 1" rx="-0.500000" width="43.000000" height="42.489380" transform="translate(0.500000 0.500000)" fill="white" fill-opacity="0"/>
		</clipPath>
	</defs>
	<rect id="dish 1" rx="-0.500000" width="43.000000" height="42.489380" transform="translate(0.500000 0.500000)" fill="#FFFFFF" fill-opacity="0"/>
	<g clip-path="url(#clip0_228)">
		<path id="Vector" d="M31.15 14.65L30.68 13.12C30.08 11.38 28.17 10.45 26.41 11.04C25.42 11.37 24.64 12.14 24.31 13.12L23.84 14.65C23.44 15.94 23.36 17.31 23.59 18.64C23.81 19.76 24.53 20.72 25.55 21.25L25.02 32.9C24.95 33.55 25.16 34.2 25.61 34.69C26.56 35.72 28.18 35.79 29.23 34.85C29.28 34.8 29.34 34.74 29.39 34.69C29.82 34.22 30.04 33.59 29.98 32.95L29.45 21.25C30.46 20.72 31.18 19.76 31.4 18.64C31.63 17.31 31.55 15.94 31.15 14.65ZM29.95 18.39C29.79 19.19 29.21 19.85 28.43 20.12C28.13 20.23 27.94 20.52 27.95 20.83L28.51 33.07C28.54 33.31 28.46 33.54 28.29 33.72C27.85 34.15 27.14 34.15 26.7 33.72C26.52 33.53 26.45 33.27 26.48 33.02L27.04 20.83C27.05 20.52 26.86 20.23 26.56 20.12C25.78 19.85 25.2 19.19 25.04 18.39C24.84 17.28 24.91 16.15 25.24 15.08L25.71 13.54C26.08 12.57 27.17 12.07 28.15 12.43C28.68 12.62 29.09 13.03 29.28 13.54L29.75 15.08C30.08 16.15 30.15 17.28 29.95 18.39Z" fill="#363853" fill-opacity="1.000000" fill-rule="nonzero"/>
		<path id="Vector" d="M19.79 10.87C19.39 10.87 19.06 11.19 19.06 11.59L19.06 17.82L17.08 19.78C16.93 19.92 16.85 20.12 16.86 20.33L17.5 33.01C17.52 33.28 17.42 33.55 17.23 33.75C16.82 34.15 16.17 34.15 15.77 33.76C15.76 33.75 15.76 33.75 15.76 33.75C15.57 33.55 15.47 33.28 15.48 33.01L16.13 20.33C16.14 20.12 16.06 19.92 15.91 19.78L13.93 17.82L13.93 11.59C13.93 11.19 13.6 10.87 13.2 10.87C12.79 10.87 12.46 11.19 12.46 11.59L12.46 18.12C12.46 18.31 12.54 18.49 12.68 18.63L14.65 20.58L14.02 32.94C13.95 34.29 15.01 35.44 16.37 35.5C17.74 35.57 18.9 34.53 18.97 33.18C18.97 33.1 18.97 33.02 18.97 32.94L18.34 20.58L20.31 18.63C20.45 18.49 20.53 18.31 20.53 18.12L20.53 11.59C20.53 11.19 20.2 10.87 19.79 10.87Z" fill="#363853" fill-opacity="1.000000" fill-rule="nonzero"/>
		<path id="Vector" d="M15.4 10.87C14.99 10.87 14.66 11.19 14.66 11.59L14.66 17.39C14.66 17.79 14.99 18.12 15.4 18.12C15.8 18.12 16.13 17.79 16.13 17.39L16.13 11.59C16.13 11.19 15.8 10.87 15.4 10.87Z" fill="#363853" fill-opacity="1.000000" fill-rule="nonzero"/>
		<path id="Vector" d="M17.6 10.87C17.19 10.87 16.86 11.19 16.86 11.59L16.86 17.39C16.86 17.79 17.19 18.12 17.6 18.12C18 18.12 18.33 17.79 18.33 17.39L18.33 11.59C18.33 11.19 18 10.87 17.6 10.87Z" fill="#363853" fill-opacity="1.000000" fill-rule="nonzero"/>
		<path id="Vector" d="M22 0C9.84 0 0 9.73 0 21.74C0 33.75 9.84 43.48 22 43.48C34.15 43.48 44 33.75 44 21.74C43.98 9.74 34.14 0.01 22 0ZM22 42.03C10.65 42.03 1.46 32.95 1.46 21.74C1.46 10.53 10.65 1.44 22 1.44C33.34 1.44 42.53 10.53 42.53 21.74C42.52 32.94 33.33 42.02 22 42.03Z" fill="#363853" fill-opacity="1.000000" fill-rule="nonzero"/>
		<path id="Vector" d="M24.38 35.35C24.34 34.95 23.98 34.66 23.57 34.69C23.56 34.7 23.56 34.7 23.55 34.7L23.55 34.7C22.52 34.82 21.47 34.82 20.44 34.7C20.04 34.65 19.67 34.94 19.63 35.33C19.58 35.73 19.87 36.09 20.27 36.14C21.42 36.27 22.57 36.27 23.72 36.14C24.12 36.1 24.41 35.74 24.38 35.35Z" fill="#363853" fill-opacity="1.000000" fill-rule="nonzero"/>
		<path id="Vector" d="M33.22 12.4C32.95 12.09 32.49 12.05 32.18 12.31C32.18 12.31 32.18 12.31 32.18 12.31C31.87 12.57 31.83 13.03 32.09 13.33C36.51 18.52 36.17 26.19 31.31 30.98C31.03 31.26 31.03 31.72 31.31 32.01C31.6 32.29 32.06 32.29 32.35 32.01C37.75 26.69 38.13 18.16 33.22 12.4Z" fill="#363853" fill-opacity="1.000000" fill-rule="nonzero"/>
		<path id="Vector" d="M17.08 9.58C17.08 9.58 17.08 9.58 17.08 9.58C17.08 9.58 17.08 9.58 17.08 9.58L17.08 9.58Z" fill="#363853" fill-opacity="1.000000" fill-rule="nonzero"/>
		<path id="Vector" d="M25.45 7.65C22.59 6.97 19.58 7.15 16.82 8.17C16.44 8.31 16.25 8.73 16.39 9.11C16.5 9.39 16.77 9.58 17.08 9.58C17.17 9.58 17.25 9.56 17.34 9.53C19.82 8.61 22.53 8.45 25.11 9.06C25.5 9.15 25.9 8.91 25.99 8.52C26.09 8.13 25.85 7.74 25.45 7.65Z" fill="#363853" fill-opacity="1.000000" fill-rule="nonzero"/>
		<path id="Vector" d="M12.64 30.94C10.17 28.51 8.79 25.19 8.79 21.74C8.79 18.98 9.67 16.29 11.32 14.07C11.56 13.75 11.5 13.29 11.17 13.05C10.85 12.81 10.39 12.87 10.15 13.19C10.14 13.2 10.14 13.21 10.13 13.21C5.89 18.97 6.52 26.92 11.61 31.97C11.89 32.25 12.36 32.25 12.64 31.97C12.93 31.69 12.93 31.23 12.64 30.94Z" fill="#363853" fill-opacity="1.000000" fill-rule="nonzero"/>
	</g>
</svg>
