<svg width="30.000000" height="29.651733" viewBox="0 0 30 29.6517" fill="none" xmlns="http://www.w3.org/2000/svg" xmlns:xlink="http://www.w3.org/1999/xlink">
	<desc>
			Created with Pixso.
	</desc>
	<defs>
		<clipPath id="clip0_401">
			<rect id="delivery 1" rx="-0.500000" width="29.000000" height="28.651733" transform="translate(0.500000 0.500000)" fill="white" fill-opacity="0"/>
		</clipPath>
		<linearGradient x1="5.750854" y1="21.837734" x2="6.870933" y2="21.875792" id="paint_linear_0_403_0" gradientUnits="userSpaceOnUse">
			<stop stop-color="#47C2FF"/>
			<stop offset="1.000000" stop-color="#1CB4FF" stop-opacity="0.709804"/>
		</linearGradient>
		<linearGradient x1="3.288330" y1="23.097347" x2="5.369349" y2="23.172136" id="paint_linear_0_404_0" gradientUnits="userSpaceOnUse">
			<stop stop-color="#47C2FF"/>
			<stop offset="1.000000" stop-color="#1CB4FF" stop-opacity="0.709804"/>
		</linearGradient>
		<linearGradient x1="0.937500" y1="13.899595" x2="28.384792" y2="14.826216" id="paint_linear_0_405_0" gradientUnits="userSpaceOnUse">
			<stop stop-color="#47C2FF"/>
			<stop offset="1.000000" stop-color="#1CB4FF" stop-opacity="0.709804"/>
		</linearGradient>
		<linearGradient x1="2.812500" y1="13.343162" x2="3.727409" y2="13.435823" id="paint_linear_0_406_0" gradientUnits="userSpaceOnUse">
			<stop stop-color="#47C2FF"/>
			<stop offset="1.000000" stop-color="#1CB4FF" stop-opacity="0.709804"/>
		</linearGradient>
	</defs>
	<rect id="delivery 1" rx="-0.500000" width="29.000000" height="28.651733" transform="translate(0.500000 0.500000)" fill="#FFFFFF" fill-opacity="0"/>
	<g clip-path="url(#clip0_401)">
		<path id="Vector" d="M5.75 21.59L6.11 22.44C6.36 22.34 6.62 22.26 6.89 22.21L6.73 21.3C6.39 21.36 6.06 21.46 5.75 21.59Z" fill="url(#paint_linear_0_403_0)" fill-opacity="1.000000" fill-rule="nonzero"/>
		<path id="Vector" d="M3.28 23.89L4.13 24.29C4.42 23.69 4.86 23.18 5.42 22.81L4.89 22.05C4.2 22.51 3.65 23.14 3.28 23.89Z" fill="url(#paint_linear_0_404_0)" fill-opacity="1.000000" fill-rule="nonzero"/>
		<path id="Vector" d="M29.06 23.62C29.06 22.83 28.76 22.06 28.22 21.46L27.52 22.08C27.8 22.39 27.99 22.76 28.07 23.16L24.84 23.16C24.76 23.16 24.69 23.18 24.62 23.22C24.55 23.25 24.49 23.3 24.45 23.37L22.71 25.94L21.56 25.94L21.56 24.55C21.56 23.69 21.9 22.87 22.52 22.26C23.13 21.65 23.97 21.31 24.84 21.31L25.78 21.31C26.24 21.31 26.69 21.44 27.07 21.69L27.59 20.92C27.19 20.66 26.73 20.48 26.25 20.41L26.25 18.99C26.25 18.87 26.2 18.75 26.11 18.66C26.02 18.58 25.9 18.53 25.78 18.53C25.28 18.53 24.8 18.33 24.45 17.98C24.1 17.64 23.9 17.17 23.9 16.67L23.9 14.82L25.31 14.82C25.43 14.82 25.55 14.77 25.64 14.69C25.73 14.6 25.78 14.48 25.78 14.36L25.78 11.11C25.78 10.99 25.73 10.87 25.64 10.79C25.55 10.7 25.43 10.65 25.31 10.65L24.48 10.65C24.28 10.65 24.09 10.68 23.9 10.73L23.9 10.19C23.9 10.08 23.87 9.98 23.8 9.9L22.26 8C22.47 7.67 22.54 7.27 22.47 6.89C22.4 6.51 22.19 6.16 21.89 5.92C21.58 5.67 21.19 5.54 20.8 5.56C20.41 5.57 20.03 5.72 19.74 5.98C19.45 6.25 19.27 6.61 19.22 6.99C19.18 7.38 19.28 7.77 19.5 8.09C19.72 8.41 20.05 8.65 20.43 8.74C20.82 8.84 21.22 8.8 21.57 8.63L22.96 10.35L22.96 10.94L20.9 10.26C20.77 10.21 20.63 10.19 20.48 10.19L16.62 10.19L14.39 7.62C14.58 7.49 14.73 7.32 14.83 7.13C14.94 6.93 14.99 6.71 15 6.48L15 6.3L15.67 5.97C15.73 5.94 15.79 5.9 15.83 5.85C15.87 5.8 15.9 5.74 15.92 5.67C15.93 5.61 15.94 5.54 15.93 5.48C15.92 5.41 15.89 5.35 15.85 5.3L15.08 4.16C15.19 4.14 15.29 4.08 15.36 4C15.43 3.91 15.46 3.81 15.46 3.7C15.46 2.96 15.17 2.26 14.64 1.74C14.11 1.22 13.4 0.92 12.65 0.92C11.77 0.92 10.95 1.17 10.34 1.84C10.08 2.12 9.88 2.46 9.76 2.83C9.63 3.2 9.59 3.59 9.63 3.98L9.73 4.97C9.77 5.4 9.98 5.79 10.31 6.07L10.31 14.82C10.31 15.15 10.39 15.47 10.56 15.75L9.84 15.75C9.68 15.75 9.52 15.77 9.37 15.83L9.37 9.72C9.37 9.36 9.22 9 8.96 8.74C8.69 8.48 8.34 8.34 7.96 8.33L2.34 8.33C1.97 8.34 1.61 8.48 1.34 8.74C1.08 9 0.93 9.36 0.93 9.72L0.93 12.04L1.87 12.04L1.87 11.11L8.43 11.11L8.43 15.75L1.87 15.75L1.87 12.97L0.93 12.97L0.93 16.75C0.93 16.97 1.01 17.18 1.15 17.34C1.29 17.51 1.49 17.62 1.7 17.66L6.09 18.45L6.09 19.54C5.69 19.63 5.3 19.76 4.93 19.92L2.34 19.92C2.21 19.92 2.1 19.97 2.01 20.05C1.92 20.14 1.87 20.26 1.87 20.38L1.87 22.58C1.26 23.6 0.93 24.76 0.93 25.94C0.93 26.06 0.98 26.18 1.07 26.27C1.16 26.36 1.28 26.4 1.4 26.4L3.55 26.4C3.83 27.09 4.31 27.67 4.93 28.09C5.55 28.5 6.28 28.72 7.03 28.72C7.77 28.72 8.5 28.5 9.12 28.09C9.74 27.67 10.22 27.09 10.5 26.4L18.38 26.4C18.71 26.4 19.03 26.34 19.33 26.21C19.63 26.08 19.9 25.88 20.12 25.65L20.62 25.1L20.62 26.4C20.62 26.53 20.67 26.64 20.76 26.73C20.85 26.82 20.96 26.87 21.09 26.87L22.06 26.87C22.47 27.57 23.11 28.13 23.87 28.44C24.64 28.75 25.48 28.81 26.28 28.59C27.08 28.38 27.78 27.92 28.28 27.27C28.79 26.62 29.06 25.83 29.06 25.01C29.06 24.66 29.01 24.31 28.9 23.97C28.95 23.92 28.99 23.87 29.02 23.81C29.04 23.75 29.06 23.69 29.06 23.62ZM20.15 7.18C20.15 7.04 20.19 6.9 20.27 6.79C20.35 6.68 20.46 6.59 20.59 6.53C20.71 6.48 20.86 6.47 20.99 6.5C21.13 6.52 21.25 6.59 21.35 6.69C21.45 6.78 21.52 6.91 21.54 7.04C21.57 7.18 21.56 7.32 21.5 7.44C21.45 7.57 21.36 7.68 21.25 7.75C21.13 7.83 20.99 7.87 20.85 7.87C20.67 7.87 20.49 7.8 20.36 7.67C20.23 7.54 20.15 7.36 20.15 7.18ZM13.45 23.62C12.99 23.62 12.55 23.44 12.22 23.12C11.9 22.8 11.71 22.37 11.71 21.91C11.71 21.46 11.83 21.03 12.14 20.68C12.41 20.37 12.79 20.17 13.2 20.11C13.7 20.04 14.15 19.79 14.48 19.42C14.81 19.04 14.99 18.56 15 18.06C15 18 14.98 17.94 14.96 17.89C14.94 17.83 14.9 17.78 14.86 17.74C14.94 17.57 14.98 17.39 14.99 17.21C15 17.03 14.98 16.85 14.91 16.67L16.19 16.67L14.13 21.96C14.08 22.09 14.06 22.22 14.06 22.36L14.06 23.62L13.45 23.62ZM15 22.7L17.34 22.7C17.44 22.7 17.54 22.73 17.62 22.79C17.7 22.85 17.76 22.93 17.79 23.03C17.82 23.12 17.81 23.22 17.78 23.32C17.75 23.41 17.68 23.49 17.6 23.55C17.48 23.6 17.35 23.62 17.23 23.62L15 23.62L15 22.7ZM18.63 22.62C18.54 22.4 18.39 22.21 18.21 22.07C18.02 21.92 17.8 21.83 17.56 21.79L19.51 17.17C19.68 16.76 19.75 16.31 19.7 15.87C19.66 15.43 19.5 15 19.26 14.63C19.01 14.26 18.67 13.96 18.27 13.75C17.87 13.54 17.43 13.43 16.98 13.43L15 13.43L15 12.7L15.13 12.83C15.18 12.88 15.23 12.91 15.28 12.93C15.34 12.96 15.4 12.97 15.46 12.97L20.23 12.97C20.16 13.18 20.13 13.4 20.16 13.62C20.2 13.84 20.28 14.05 20.41 14.23C20.54 14.42 20.71 14.56 20.91 14.67C21.11 14.77 21.33 14.82 21.56 14.82L21.56 14.82C21.25 15.22 21.09 15.71 21.09 16.21L21.09 19.81C21.09 20.05 20.99 20.29 20.81 20.46L18.63 22.62ZM21.56 13.89C21.46 13.89 21.37 13.87 21.3 13.82C21.22 13.77 21.16 13.69 21.12 13.61C21.09 13.52 21.08 13.43 21.1 13.34C21.12 13.25 21.16 13.17 21.23 13.1C21.29 13.04 21.38 12.99 21.47 12.98C21.56 12.96 21.65 12.97 21.74 13C21.82 13.04 21.9 13.1 21.95 13.17C22 13.25 22.03 13.34 22.03 13.43C22.03 13.55 21.98 13.67 21.89 13.76C21.8 13.85 21.68 13.89 21.56 13.89ZM24.84 11.58L24.84 13.89L23.9 13.89L23.9 11.72C24.08 11.63 24.28 11.58 24.48 11.58L24.84 11.58ZM22.96 13.43C22.96 13.21 22.91 12.99 22.81 12.79C22.7 12.59 22.55 12.42 22.37 12.3C22.19 12.17 21.97 12.09 21.75 12.05C21.53 12.02 21.3 12.05 21.09 12.12L21.09 11.29L22.96 11.91L22.96 13.43ZM16.4 11.11L20.15 11.11L20.15 12.04L15.66 12.04L12.98 9.4L12.32 10.05L14.06 11.77L14.06 13.43L11.25 13.43L11.25 7.87L13.37 7.87L16.05 10.95C16.09 11 16.14 11.04 16.21 11.07C16.27 11.1 16.33 11.11 16.4 11.11ZM11.04 2.46C11.47 1.99 12.04 1.85 12.65 1.85C13.07 1.85 13.47 1.99 13.8 2.24C14.13 2.49 14.36 2.84 14.47 3.24L12.65 3.24C12.53 3.24 12.41 3.29 12.32 3.37C12.23 3.46 12.18 3.58 12.18 3.7L12.18 4.8C12.18 4.99 12.11 5.18 11.97 5.32C11.84 5.46 11.65 5.54 11.46 5.55C11.26 5.56 11.07 5.5 10.93 5.37C10.78 5.25 10.68 5.07 10.66 4.88L10.56 3.89C10.54 3.63 10.56 3.37 10.65 3.12C10.73 2.88 10.86 2.65 11.04 2.46ZM11.42 6.48C11.87 6.48 12.3 6.3 12.62 5.99C12.94 5.67 13.12 5.25 13.12 4.8L13.12 4.17L14.06 4.17C14.06 4.26 14.08 4.35 14.14 4.42L14.78 5.38L14.32 5.6C14.24 5.64 14.17 5.7 14.13 5.77C14.08 5.85 14.06 5.93 14.06 6.02L14.06 6.48C14.06 6.6 14.01 6.72 13.92 6.81C13.83 6.9 13.71 6.94 13.59 6.95L11.25 6.95L11.25 6.47C11.3 6.48 11.36 6.48 11.42 6.48ZM11.25 14.82L11.25 14.36L16.98 14.36C17.28 14.36 17.57 14.43 17.83 14.57C18.09 14.71 18.31 14.9 18.48 15.15C18.64 15.39 18.74 15.67 18.77 15.96C18.8 16.25 18.75 16.54 18.64 16.81L16.56 21.77L15.21 21.77L17.31 16.38C17.33 16.31 17.34 16.23 17.34 16.16C17.33 16.08 17.3 16.01 17.26 15.95C17.21 15.89 17.16 15.84 17.09 15.8C17.02 15.77 16.95 15.75 16.87 15.75L12.18 15.75C11.93 15.75 11.7 15.65 11.52 15.48C11.34 15.3 11.25 15.07 11.25 14.82ZM9.84 16.67L13.59 16.67C13.71 16.67 13.83 16.72 13.92 16.81C14.01 16.9 14.06 17.01 14.06 17.14C14.06 17.26 14.01 17.38 13.92 17.47C13.83 17.55 13.71 17.6 13.59 17.6L9.84 17.6C9.71 17.6 9.6 17.55 9.51 17.47C9.42 17.38 9.37 17.26 9.37 17.14C9.37 17.01 9.42 16.9 9.51 16.81C9.6 16.72 9.71 16.67 9.84 16.67ZM1.87 10.19L1.87 9.72C1.87 9.6 1.92 9.48 2.01 9.4C2.1 9.31 2.21 9.26 2.34 9.26L7.96 9.26C8.09 9.26 8.21 9.31 8.3 9.4C8.38 9.48 8.43 9.6 8.43 9.72L8.43 10.19L1.87 10.19ZM1.87 16.67L8.43 16.67L8.43 17.6L6.6 17.6L1.87 16.75L1.87 16.67ZM3.39 20.84C3.18 21.01 2.99 21.18 2.81 21.37L2.81 20.84L3.39 20.84ZM7.03 27.79C6.53 27.79 6.05 27.66 5.62 27.42C5.19 27.17 4.84 26.83 4.59 26.4L5.79 26.4C6.13 26.7 6.57 26.87 7.03 26.87C7.48 26.87 7.92 26.7 8.27 26.4L9.46 26.4C9.21 26.83 8.86 27.17 8.43 27.42C8 27.66 7.52 27.79 7.03 27.79ZM19.42 25.02C19.29 25.17 19.13 25.28 18.95 25.36C18.77 25.44 18.58 25.48 18.38 25.48L1.89 25.48C1.99 24.27 2.48 23.12 3.29 22.21C4.11 21.3 5.19 20.67 6.39 20.42C6.51 20.39 6.64 20.38 6.76 20.38L9.84 20.38L9.84 19.45L7.03 19.45L7.03 18.53L13.96 18.53C13.88 18.7 13.76 18.86 13.6 18.97C13.44 19.09 13.26 19.16 13.07 19.19C12.43 19.28 11.85 19.6 11.43 20.08C10.97 20.59 10.78 21.24 10.78 21.91C10.78 22.54 11 23.15 11.42 23.62L7.5 23.62L7.5 24.55L17.23 24.55C17.72 24.55 18.2 24.35 18.55 24.01L21.48 21.12C21.83 20.77 22.02 20.3 22.03 19.81L22.03 16.21C22.03 15.92 22.12 15.64 22.28 15.41C22.45 15.17 22.69 15 22.96 14.9L22.96 16.67C22.96 17.33 23.2 17.97 23.63 18.47C24.06 18.97 24.65 19.31 25.31 19.42L25.31 20.38C25.02 20.38 24.72 20.36 24.43 20.4C23.55 20.49 22.72 20.84 22.06 21.42C21.4 21.99 20.93 22.75 20.73 23.6L19.42 25.02ZM25.09 24.09L25.11 24.09L25.68 24.65C25.78 24.74 25.83 24.88 25.83 25.01C25.83 25.12 25.8 25.22 25.74 25.3C25.69 25.39 25.6 25.45 25.51 25.49C25.41 25.53 25.31 25.54 25.21 25.52C25.1 25.5 25.01 25.45 24.94 25.38L24.5 24.96L25.09 24.09ZM25.31 27.79C24.9 27.79 24.5 27.7 24.13 27.54C23.76 27.37 23.43 27.12 23.17 26.82C23.24 26.78 23.31 26.73 23.35 26.66L23.76 26.06C23.99 26.39 24.31 26.63 24.69 26.76C25.07 26.89 25.48 26.9 25.86 26.79C26.24 26.67 26.58 26.43 26.82 26.11C27.05 25.8 27.18 25.41 27.18 25.01C27.18 24.74 27.12 24.47 27 24.22C26.98 24.18 26.96 24.13 26.93 24.09L27.96 24.09C28.11 24.51 28.16 24.96 28.09 25.4C28.03 25.84 27.86 26.26 27.6 26.62C27.34 26.98 27 27.28 26.6 27.48C26.2 27.69 25.76 27.79 25.31 27.79Z" fill="url(#paint_linear_0_405_0)" fill-opacity="1.000000" fill-rule="nonzero"/>
		<path id="Vector" d="M2.81 12.04L3.75 12.04L3.75 14.82L2.81 14.82L2.81 12.04Z" fill="url(#paint_linear_0_406_0)" fill-opacity="1.000000" fill-rule="evenodd"/>
	</g>
</svg>
