<svg width="39.000000" height="39.000000" viewBox="0 0 39 39" fill="none" xmlns="http://www.w3.org/2000/svg" xmlns:xlink="http://www.w3.org/1999/xlink">
	<desc>
			Created with Pixso.
	</desc>
	<defs/>
	<circle id="Ellipse 4" cx="19.500000" cy="19.500000" r="19.500000" fill="#EEEEEF" fill-opacity="1.000000"/>
	<path id="ic-instagram" d="M18.98 16.76C17.19 16.76 15.73 18.22 15.73 20.01C15.73 21.8 17.19 23.26 18.98 23.26C20.77 23.26 22.23 21.8 22.23 20.01C22.23 18.22 20.77 16.76 18.98 16.76ZM28.73 20.01C28.73 18.66 28.74 17.33 28.67 15.98C28.59 14.42 28.24 13.04 27.09 11.9C25.95 10.75 24.57 10.4 23.01 10.32C21.66 10.25 20.33 10.26 18.98 10.26C17.64 10.26 16.3 10.25 14.96 10.32C13.4 10.4 12.01 10.75 10.87 11.9C9.73 13.04 9.37 14.42 9.3 15.98C9.22 17.33 9.23 18.66 9.23 20.01C9.23 21.35 9.22 22.69 9.3 24.03C9.37 25.59 9.73 26.98 10.87 28.12C12.01 29.26 13.4 29.62 14.96 29.69C16.3 29.77 17.64 29.76 18.98 29.76C20.33 29.76 21.66 29.77 23.01 29.69C24.57 29.62 25.95 29.26 27.09 28.12C28.24 26.98 28.59 25.59 28.67 24.03C28.75 22.69 28.73 21.35 28.73 20.01ZM18.98 25.01C16.21 25.01 13.98 22.78 13.98 20.01C13.98 17.24 16.21 15.01 18.98 15.01C21.75 15.01 23.98 17.24 23.98 20.01C23.98 22.78 21.75 25.01 18.98 25.01ZM24.19 15.97C23.54 15.97 23.02 15.45 23.02 14.8C23.02 14.15 23.54 13.63 24.19 13.63C24.83 13.63 25.36 14.15 25.36 14.8C25.36 14.95 25.33 15.11 25.27 15.25C25.21 15.39 25.12 15.52 25.01 15.63C24.91 15.74 24.78 15.82 24.63 15.88C24.49 15.94 24.34 15.97 24.19 15.97Z" fill="#363853" fill-opacity="1.000000" fill-rule="nonzero"/>
</svg>
