<svg width="39.000000" height="39.000000" viewBox="0 0 39 39" fill="none" xmlns="http://www.w3.org/2000/svg" xmlns:xlink="http://www.w3.org/1999/xlink">
	<desc>
			Created with Pixso.
	</desc>
	<defs/>
	<circle id="Ellipse 4" cx="19.500000" cy="19.500000" r="19.500000" fill="#EEEEEF" fill-opacity="1.000000"/>
	<path id="ic-pinterset" d="M11.28 16.59C11.28 15.71 11.44 14.87 11.75 14.09C12.04 13.33 12.47 12.63 13.02 12.03C13.58 11.44 14.21 10.93 14.9 10.52C15.61 10.09 16.38 9.76 17.18 9.55C18 9.34 18.83 9.23 19.68 9.23C20.97 9.23 22.18 9.51 23.3 10.05C24.41 10.59 25.35 11.42 26.03 12.44C26.73 13.49 27.08 14.67 27.08 15.98C27.08 16.77 27 17.54 26.84 18.3C26.69 19.05 26.44 19.79 26.11 20.48C25.79 21.15 25.37 21.78 24.87 22.33C24.37 22.87 23.76 23.3 23.08 23.6C22.35 23.92 21.55 24.08 20.75 24.07C20.19 24.07 19.64 23.94 19.09 23.68C18.54 23.42 18.14 23.06 17.91 22.59C17.82 22.91 17.71 23.38 17.56 23.98C17.41 24.59 17.31 24.98 17.27 25.15C17.22 25.33 17.14 25.62 17.02 26.03C16.93 26.33 16.83 26.62 16.7 26.91L16.3 27.68C16.13 28.01 15.94 28.32 15.74 28.63C15.53 28.93 15.27 29.29 14.97 29.7L14.8 29.76L14.69 29.63C14.56 28.34 14.5 27.57 14.5 27.31C14.5 26.56 14.59 25.71 14.77 24.77C14.94 23.83 15.22 22.64 15.59 21.22C15.96 19.8 16.17 18.96 16.23 18.72C15.97 18.18 15.84 17.49 15.84 16.63C15.84 15.95 16.05 15.31 16.48 14.71C16.91 14.11 17.45 13.81 18.11 13.81C18.61 13.81 19 13.97 19.28 14.31C19.56 14.64 19.7 15.06 19.7 15.57C19.7 16.11 19.52 16.9 19.15 17.93C18.79 18.96 18.61 19.72 18.61 20.23C18.61 20.75 18.79 21.18 19.16 21.52C19.53 21.86 20.01 22.05 20.51 22.03C20.96 22.03 21.38 21.93 21.77 21.73C22.15 21.53 22.48 21.24 22.74 20.89C23.29 20.13 23.68 19.27 23.9 18.35C24.01 17.87 24.09 17.41 24.14 16.98C24.2 16.55 24.22 16.14 24.22 15.75C24.22 14.33 23.77 13.22 22.87 12.43C21.97 11.64 20.8 11.24 19.35 11.24C17.71 11.24 16.33 11.77 15.23 12.84C14.13 13.9 13.58 15.25 13.58 16.89C13.58 17.25 13.63 17.6 13.73 17.94C13.84 18.28 13.95 18.55 14.07 18.74C14.19 18.94 14.3 19.13 14.4 19.31C14.5 19.48 14.55 19.61 14.55 19.68C14.55 19.91 14.49 20.21 14.37 20.58C14.25 20.95 14.1 21.14 13.92 21.14C13.9 21.14 13.83 21.13 13.71 21.1C13.28 20.97 12.89 20.73 12.59 20.41C12.26 20.07 12.01 19.68 11.84 19.24C11.66 18.81 11.53 18.37 11.44 17.91C11.33 17.48 11.28 17.04 11.28 16.59Z" fill="#363853" fill-opacity="1.000000" fill-rule="nonzero"/>
</svg>
