<svg width="16.666656" height="15.649536" viewBox="0 0 16.6667 15.6495" fill="none" xmlns="http://www.w3.org/2000/svg" xmlns:xlink="http://www.w3.org/1999/xlink">
	<desc>
			Created with Pixso.
	</desc>
	<defs/>
	<g style="mix-blend-mode:normal">
		<path id="Fill 1" d="M9.14 0.5L11 4.19C11.13 4.45 11.39 4.64 11.7 4.68L15.86 5.28C16.11 5.31 16.33 5.44 16.48 5.63C16.62 5.82 16.69 6.07 16.65 6.31C16.62 6.5 16.53 6.69 16.38 6.83L13.36 9.72C13.14 9.92 13.04 10.22 13.1 10.51L13.84 14.58C13.92 15.07 13.59 15.53 13.1 15.63C12.89 15.66 12.69 15.63 12.5 15.53L8.78 13.62C8.51 13.48 8.18 13.48 7.91 13.62L4.19 15.53C3.73 15.77 3.17 15.61 2.91 15.17C2.82 14.99 2.78 14.79 2.82 14.59L3.56 10.52C3.61 10.23 3.51 9.93 3.29 9.73L0.27 6.84C-0.09 6.49 -0.1 5.93 0.25 5.57C0.26 5.57 0.26 5.56 0.27 5.55C0.42 5.4 0.6 5.31 0.81 5.29L4.97 4.69C5.27 4.65 5.54 4.46 5.67 4.19L7.46 0.5C7.62 0.18 7.95 -0.01 8.31 0L8.42 0C8.73 0.03 9 0.22 9.14 0.5Z" fill="#FAC412" fill-opacity="1.000000" fill-rule="nonzero"/>
	</g>
</svg>
