<svg width="15.600006" height="15.600098" viewBox="0 0 15.6 15.6001" fill="none" xmlns="http://www.w3.org/2000/svg" xmlns:xlink="http://www.w3.org/1999/xlink">
	<desc>
			Created with Pixso.
	</desc>
	<defs>
		<clipPath id="clip0_574">
			<rect id="Frame" rx="-0.500000" width="14.600000" height="14.600000" transform="translate(0.500000 0.500000)" fill="white" fill-opacity="0"/>
		</clipPath>
	</defs>
	<rect id="Frame" rx="-0.500000" width="14.600000" height="14.600000" transform="translate(0.500000 0.500000)" fill="#FFFFFF" fill-opacity="0"/>
	<g clip-path="url(#clip0_574)">
		<path id="Vector" d="M9.74 14.3C9.5 14.3 9.27 14.16 9.16 13.94L7.23 10.08C7.13 9.87 7.15 9.61 7.28 9.42L10.4 5.2L6.17 8.31C5.98 8.44 5.72 8.46 5.51 8.36L1.65 6.43C1.42 6.31 1.28 6.07 1.3 5.81C1.31 5.55 1.48 5.32 1.72 5.24L14.07 0.69C14.31 0.6 14.57 0.66 14.75 0.84C14.93 1.01 14.99 1.28 14.9 1.52L10.35 13.87C10.27 14.11 10.04 14.28 9.78 14.29C9.77 14.29 9.76 14.3 9.74 14.3Z" fill="#FFFFFF" fill-opacity="1.000000" fill-rule="nonzero"/>
	</g>
</svg>
