<svg width="39.000000" height="39.000000" viewBox="0 0 39 39" fill="none" xmlns="http://www.w3.org/2000/svg" xmlns:xlink="http://www.w3.org/1999/xlink">
	<desc>
			Created with Pixso.
	</desc>
	<defs/>
	<circle id="Ellipse 4" cx="19.500000" cy="19.500000" r="19.500000" fill="#EEEEEF" fill-opacity="1.000000"/>
	<path id="ic-twitter" d="M29.76 13.27C29 13.59 28.18 13.83 27.34 13.92C28.21 13.39 28.87 12.57 29.19 11.6C28.36 12.09 27.46 12.43 26.52 12.61C26.12 12.19 25.65 11.86 25.12 11.63C24.59 11.4 24.02 11.28 23.44 11.28C21.11 11.28 19.24 13.17 19.24 15.49C19.24 15.82 19.28 16.14 19.34 16.46C15.85 16.28 12.74 14.61 10.67 12.05C10.29 12.7 10.09 13.43 10.1 14.18C10.1 15.64 10.84 16.93 11.97 17.68C11.3 17.66 10.65 17.47 10.07 17.15L10.07 17.2C10.07 19.25 11.51 20.94 13.44 21.33C13.08 21.42 12.71 21.47 12.33 21.47C12.06 21.47 11.8 21.45 11.54 21.41C12.07 23.08 13.62 24.29 15.47 24.33C14.02 25.46 12.21 26.12 10.25 26.12C9.9 26.12 9.57 26.11 9.23 26.07C11.1 27.27 13.31 27.96 15.69 27.96C23.43 27.96 27.66 21.55 27.66 15.99C27.66 15.81 27.66 15.62 27.65 15.44C28.47 14.84 29.19 14.1 29.76 13.27Z" fill="#363853" fill-opacity="1.000000" fill-rule="nonzero"/>
</svg>
